# xmcd CD database file
#
# Track frame offsets:
#	150
#	16998
#	34249
#	47331
#	65540
#	80738
#	95816
#	110315
#	125084
#	136130
#	156289
#	167888
#	187745
#	208090
#	225165
#	245040
#	266454
#	284248
#
# Disc length: 3900 seconds
#
# Revision: 0
# Processed by: cddbd v1.5.2PL0 Copyright (c) Steve Scherf et al.
# Submitted via: CDex 1.51
#
DISCID=010f3a12
DTITLE=Roy Rogers - The Best Of 2
DYEAR=2007
DGENRE=Country
TTITLE0=Don't Give It Up
TTITLE1=Bad Situation
TTITLE2=Don't Say A Word
TTITLE3=Cure For An Achin' Heart
TTITLE4=Slide Of Hand
TTITLE5=Make Your Paradise
TTITLE6=Rockin' At The Hey Hey
TTITLE7=Work Hard For The Money
TTITLE8=Bull Hog Grind
TTITLE9=Get Back In Line
TTITLE10=Spent Money
TTITLE11=House Of Blue Dreams
TTITLE12=Lover's Moon
TTITLE13=Livin' On Borrowed Time
TTITLE14=Ode To The Delta
TTITLE15=Slide Zone
TTITLE16=Rough House
TTITLE17=Off The Cuff
EXTD=YEAR: 2007
EXTT0=
EXTT1=
EXTT2=
EXTT3=
EXTT4=
EXTT5=
EXTT6=
EXTT7=
EXTT8=
EXTT9=
EXTT10=
EXTT11=
EXTT12=
EXTT13=
EXTT14=
EXTT15=
EXTT16=
EXTT17=
PLAYORDER=
